<svg xmlns="http://www.w3.org/2000/svg" xmlns:xlink="http://www.w3.org/1999/xlink" width="1080" zoomAndPan="magnify" viewBox="0 0 810 809.999993" height="1080" preserveAspectRatio="xMidYMid meet" version="1.2"><defs><clipPath id="774509a92c"><path d="M 340 228.296875 L 463 228.296875 L 463 350 L 340 350 Z M 340 228.296875 "/></clipPath><clipPath id="6e6e9b4c32"><path d="M 237 547 L 572.910156 547 L 572.910156 581.546875 L 237 581.546875 Z M 237 547 "/></clipPath></defs><g id="9d6e7ca011"><rect x="0" width="810" y="0" height="809.999993" style="fill:#ffffff;fill-opacity:1;stroke:none;"/><rect x="0" width="810" y="0" height="809.999993" style="fill:#ffffff;fill-opacity:1;stroke:none;"/><g clip-rule="nonzero" clip-path="url(#774509a92c)"><path style=" stroke:none;fill-rule:nonzero;fill:#5e5a5a;fill-opacity:1;" d="M 401.304688 350 C 434.859375 350 462.15625 322.703125 462.15625 289.148438 C 462.15625 255.597656 434.859375 228.300781 401.304688 228.300781 C 367.753906 228.300781 340.457031 255.597656 340.457031 289.148438 C 340.457031 322.703125 367.753906 350 401.304688 350 Z M 401.304688 350 "/></g><path style=" stroke:none;fill-rule:nonzero;fill:#5e5a5a;fill-opacity:1;" d="M 289.695312 537.054688 L 512.863281 537.054688 C 521.367188 537.054688 529.445312 533.371094 535.027344 526.945312 C 540.613281 520.519531 543.128906 512.003906 541.941406 503.585938 C 525.484375 386.96875 456.515625 358.410156 453.589844 357.253906 L 449.339844 355.574219 L 401.28125 447.375 L 353.214844 355.574219 L 348.96875 357.253906 C 346.042969 358.414062 277.074219 386.972656 260.617188 503.585938 C 259.429688 512.007812 261.949219 520.519531 267.53125 526.949219 C 273.113281 533.371094 281.191406 537.054688 289.695312 537.054688 Z M 313.28125 463.871094 C 313.011719 462.863281 313.316406 461.976562 313.695312 461.484375 C 313.886719 461.234375 314.199219 460.9375 314.605469 460.9375 L 487.953125 460.9375 C 488.359375 460.9375 488.675781 461.234375 488.863281 461.484375 C 489.242188 461.976562 489.546875 462.863281 489.277344 463.867188 L 476.316406 511.882812 L 472.261719 526.90625 L 330.292969 526.90625 Z M 313.28125 463.871094 "/><path style=" stroke:none;fill-rule:nonzero;fill:#5e5a5a;fill-opacity:1;" d="M 398.78125 367.6875 L 387.675781 400.800781 C 387.402344 401.617188 387.476562 402.507812 387.886719 403.265625 L 399.003906 423.871094 C 400.175781 426.042969 403.289062 426.046875 404.46875 423.878906 L 415.605469 403.390625 C 416.015625 402.628906 416.09375 401.734375 415.820312 400.914062 L 404.675781 367.6875 C 403.726562 364.863281 399.730469 364.863281 398.78125 367.6875 Z M 398.78125 367.6875 "/><g clip-rule="nonzero" clip-path="url(#6e6e9b4c32)"><path style=" stroke:none;fill-rule:nonzero;fill:#5e5a5a;fill-opacity:1;" d="M 237.191406 547.8125 L 572.628906 547.8125 L 572.628906 581.507812 L 237.191406 581.507812 Z M 237.191406 547.8125 "/></g></g></svg>