<svg xmlns="http://www.w3.org/2000/svg" xmlns:xlink="http://www.w3.org/1999/xlink" width="1080" zoomAndPan="magnify" viewBox="0 0 810 809.999993" height="1080" preserveAspectRatio="xMidYMid meet" version="1.2"><defs><clipPath id="913bcaae63"><path d="M 291 228.296875 L 443 228.296875 L 443 380 L 291 380 Z M 291 228.296875 "/></clipPath><clipPath id="bb9fb78cc6"><path d="M 236 387 L 499 387 L 499 581.546875 L 236 581.546875 Z M 236 387 "/></clipPath></defs><g id="d96f6c51ca"><rect x="0" width="810" y="0" height="809.999993" style="fill:#ffffff;fill-opacity:1;stroke:none;"/><rect x="0" width="810" y="0" height="809.999993" style="fill:#ffffff;fill-opacity:1;stroke:none;"/><g clip-rule="nonzero" clip-path="url(#913bcaae63)"><path style=" stroke:none;fill-rule:nonzero;fill:#5e5a5a;fill-opacity:1;" d="M 442.527344 303.730469 C 442.527344 262.140625 408.683594 228.296875 367.207031 228.296875 C 325.613281 228.296875 291.769531 262.140625 291.769531 303.730469 C 291.769531 345.210938 325.613281 379.054688 367.207031 379.054688 C 408.683594 379.054688 442.527344 345.210938 442.527344 303.730469 Z M 442.527344 303.730469 "/></g><g clip-rule="nonzero" clip-path="url(#bb9fb78cc6)"><path style=" stroke:none;fill-rule:nonzero;fill:#5e5a5a;fill-opacity:1;" d="M 367.207031 387.828125 C 294.847656 387.828125 236.160156 446.625 236.160156 518.871094 L 236.160156 541.664062 C 236.160156 563.65625 254.050781 581.546875 276.042969 581.546875 L 458.367188 581.546875 C 480.246094 581.546875 498.25 563.65625 498.25 541.664062 L 498.25 518.871094 C 498.25 446.625 439.453125 387.828125 367.207031 387.828125 Z M 367.207031 387.828125 "/></g><path style=" stroke:none;fill-rule:nonzero;fill:#5e5a5a;fill-opacity:1;" d="M 542.285156 315.472656 L 499.941406 357.816406 L 484.394531 342.28125 C 477.71875 335.605469 466.902344 335.605469 460.226562 342.28125 C 453.550781 348.957031 453.550781 359.785156 460.226562 366.449219 L 487.855469 394.070312 C 491.195312 397.410156 495.570312 399.078125 499.941406 399.078125 C 504.316406 399.078125 508.6875 397.410156 512.027344 394.070312 L 566.453125 339.644531 C 573.132812 332.964844 573.132812 322.148438 566.453125 315.472656 C 559.777344 308.796875 548.960938 308.796875 542.285156 315.472656 Z M 542.285156 315.472656 "/></g></svg>